G04 Layer_Color=2752767*
%FSLAX23Y23*%
%MOIN*%
G70*
G01*
G75*
%ADD50C,0.002*%
%ADD51C,0.003*%
D50*
X155Y771D02*
Y787D01*
X171D01*
Y771D01*
X155D01*
X386Y760D02*
Y776D01*
X402D01*
Y760D01*
X386D01*
X148Y473D02*
Y489D01*
X164D01*
Y473D01*
X148D01*
X381Y479D02*
Y495D01*
X397D01*
Y479D01*
X381D01*
X617D02*
Y495D01*
X633D01*
Y479D01*
X617D01*
X853D02*
Y495D01*
X869D01*
Y479D01*
X853D01*
X1089D02*
Y495D01*
X1105D01*
Y479D01*
X1089D01*
X1326D02*
Y495D01*
X1342D01*
Y479D01*
X1326D01*
X1562D02*
Y495D01*
X1578D01*
Y479D01*
X1562D01*
X1799Y472D02*
Y488D01*
X1815D01*
Y472D01*
X1799D01*
X1797Y772D02*
Y788D01*
X1813D01*
Y772D01*
X1797D01*
X1567Y760D02*
Y776D01*
X1583D01*
Y760D01*
X1567D01*
X1331D02*
Y776D01*
X1347D01*
Y760D01*
X1331D01*
X1094D02*
Y776D01*
X1110D01*
Y760D01*
X1094D01*
X858D02*
Y776D01*
X874D01*
Y760D01*
X858D01*
X622D02*
Y776D01*
X638D01*
Y760D01*
X622D01*
X146Y622D02*
Y638D01*
X162D01*
Y622D01*
X146D01*
X1803D02*
Y638D01*
X1819D01*
Y622D01*
X1803D01*
X155Y337D02*
Y353D01*
X171D01*
Y337D01*
X155D01*
X386Y327D02*
Y343D01*
X402D01*
Y327D01*
X386D01*
X148Y40D02*
Y56D01*
X164D01*
Y40D01*
X148D01*
X381Y46D02*
Y62D01*
X397D01*
Y46D01*
X381D01*
X617D02*
Y62D01*
X633D01*
Y46D01*
X617D01*
X853D02*
Y62D01*
X869D01*
Y46D01*
X853D01*
X1089D02*
Y62D01*
X1105D01*
Y46D01*
X1089D01*
X1326D02*
Y62D01*
X1342D01*
Y46D01*
X1326D01*
X1562D02*
Y62D01*
X1578D01*
Y46D01*
X1562D01*
X1799Y39D02*
Y55D01*
X1815D01*
Y39D01*
X1799D01*
X1797Y338D02*
Y354D01*
X1813D01*
Y338D01*
X1797D01*
X1567Y327D02*
Y343D01*
X1583D01*
Y327D01*
X1567D01*
X1331D02*
Y343D01*
X1347D01*
Y327D01*
X1331D01*
X1094D02*
Y343D01*
X1110D01*
Y327D01*
X1094D01*
X858D02*
Y343D01*
X874D01*
Y327D01*
X858D01*
X622D02*
Y343D01*
X638D01*
Y327D01*
X622D01*
X146Y189D02*
Y205D01*
X162D01*
Y189D01*
X146D01*
X1803D02*
Y205D01*
X1819D01*
Y189D01*
X1803D01*
X732Y1231D02*
Y1247D01*
X748D01*
Y1231D01*
X732D01*
X202D02*
Y1247D01*
X218D01*
Y1231D01*
X202D01*
X192Y971D02*
Y987D01*
X208D01*
Y971D01*
X192D01*
X612Y1011D02*
Y1027D01*
X628D01*
Y1011D01*
X612D01*
X462Y1381D02*
Y1397D01*
X478D01*
Y1381D01*
X462D01*
X652Y1711D02*
Y1727D01*
X668D01*
Y1711D01*
X652D01*
X292D02*
Y1727D01*
X308D01*
Y1711D01*
X292D01*
X1751Y1231D02*
Y1247D01*
X1767D01*
Y1231D01*
X1751D01*
X1221D02*
Y1247D01*
X1237D01*
Y1231D01*
X1221D01*
X1211Y971D02*
Y987D01*
X1227D01*
Y971D01*
X1211D01*
X1631Y1011D02*
Y1027D01*
X1647D01*
Y1011D01*
X1631D01*
X1481Y1381D02*
Y1397D01*
X1497D01*
Y1381D01*
X1481D01*
X1671Y1711D02*
Y1727D01*
X1687D01*
Y1711D01*
X1671D01*
X1311D02*
Y1727D01*
X1327D01*
Y1711D01*
X1311D01*
D51*
X338Y919D02*
G03*
X338Y919I-8J0D01*
G01*
X438D02*
G03*
X438Y919I-8J0D01*
G01*
X538D02*
G03*
X538Y919I-8J0D01*
G01*
X638D02*
G03*
X638Y919I-8J0D01*
G01*
X58D02*
G03*
X58Y919I-8J0D01*
G01*
Y1019D02*
G03*
X58Y1019I-8J0D01*
G01*
Y1119D02*
G03*
X58Y1119I-8J0D01*
G01*
Y1219D02*
G03*
X58Y1219I-8J0D01*
G01*
Y1319D02*
G03*
X58Y1319I-8J0D01*
G01*
Y1419D02*
G03*
X58Y1419I-8J0D01*
G01*
Y1519D02*
G03*
X58Y1519I-8J0D01*
G01*
Y1619D02*
G03*
X58Y1619I-8J0D01*
G01*
Y1719D02*
G03*
X58Y1719I-8J0D01*
G01*
Y1819D02*
G03*
X58Y1819I-8J0D01*
G01*
Y1919D02*
G03*
X58Y1919I-8J0D01*
G01*
X908Y919D02*
G03*
X908Y919I-8J0D01*
G01*
Y1019D02*
G03*
X908Y1019I-8J0D01*
G01*
Y1119D02*
G03*
X908Y1119I-8J0D01*
G01*
Y1219D02*
G03*
X908Y1219I-8J0D01*
G01*
Y1319D02*
G03*
X908Y1319I-8J0D01*
G01*
Y1419D02*
G03*
X908Y1419I-8J0D01*
G01*
Y1519D02*
G03*
X908Y1519I-8J0D01*
G01*
Y1619D02*
G03*
X908Y1619I-8J0D01*
G01*
Y1719D02*
G03*
X908Y1719I-8J0D01*
G01*
Y1819D02*
G03*
X908Y1819I-8J0D01*
G01*
Y1919D02*
G03*
X908Y1919I-8J0D01*
G01*
X1357Y919D02*
G03*
X1357Y919I-8J0D01*
G01*
X1457D02*
G03*
X1457Y919I-8J0D01*
G01*
X1557D02*
G03*
X1557Y919I-8J0D01*
G01*
X1657D02*
G03*
X1657Y919I-8J0D01*
G01*
X1077D02*
G03*
X1077Y919I-8J0D01*
G01*
Y1019D02*
G03*
X1077Y1019I-8J0D01*
G01*
Y1119D02*
G03*
X1077Y1119I-8J0D01*
G01*
Y1219D02*
G03*
X1077Y1219I-8J0D01*
G01*
Y1319D02*
G03*
X1077Y1319I-8J0D01*
G01*
Y1419D02*
G03*
X1077Y1419I-8J0D01*
G01*
Y1519D02*
G03*
X1077Y1519I-8J0D01*
G01*
Y1619D02*
G03*
X1077Y1619I-8J0D01*
G01*
Y1719D02*
G03*
X1077Y1719I-8J0D01*
G01*
Y1819D02*
G03*
X1077Y1819I-8J0D01*
G01*
Y1919D02*
G03*
X1077Y1919I-8J0D01*
G01*
X1927Y919D02*
G03*
X1927Y919I-8J0D01*
G01*
Y1019D02*
G03*
X1927Y1019I-8J0D01*
G01*
Y1119D02*
G03*
X1927Y1119I-8J0D01*
G01*
Y1219D02*
G03*
X1927Y1219I-8J0D01*
G01*
Y1319D02*
G03*
X1927Y1319I-8J0D01*
G01*
Y1419D02*
G03*
X1927Y1419I-8J0D01*
G01*
Y1519D02*
G03*
X1927Y1519I-8J0D01*
G01*
Y1619D02*
G03*
X1927Y1619I-8J0D01*
G01*
Y1719D02*
G03*
X1927Y1719I-8J0D01*
G01*
Y1819D02*
G03*
X1927Y1819I-8J0D01*
G01*
Y1919D02*
G03*
X1927Y1919I-8J0D01*
G01*
M02*
