G04 Layer_Physical_Order=2*
G04 Layer_Color=16711680*
%FSLAX23Y23*%
%MOIN*%
G70*
G01*
G75*
%ADD13C,0.010*%
%ADD14C,0.050*%
%ADD15R,0.118X0.060*%
G04:AMPARAMS|DCode=16|XSize=118mil|YSize=60mil|CornerRadius=0mil|HoleSize=0mil|Usage=FLASHONLY|Rotation=0.000|XOffset=0mil|YOffset=0mil|HoleType=Round|Shape=Octagon|*
%AMOCTAGOND16*
4,1,8,0.059,-0.015,0.059,0.015,0.044,0.030,-0.044,0.030,-0.059,0.015,-0.059,-0.015,-0.044,-0.030,0.044,-0.030,0.059,-0.015,0.0*
%
%ADD16OCTAGOND16*%

G04:AMPARAMS|DCode=17|XSize=118mil|YSize=60mil|CornerRadius=15mil|HoleSize=0mil|Usage=FLASHONLY|Rotation=0.000|XOffset=0mil|YOffset=0mil|HoleType=Round|Shape=RoundedRectangle|*
%AMROUNDEDRECTD17*
21,1,0.118,0.030,0,0,0.0*
21,1,0.088,0.060,0,0,0.0*
1,1,0.030,0.044,-0.015*
1,1,0.030,-0.044,-0.015*
1,1,0.030,-0.044,0.015*
1,1,0.030,0.044,0.015*
%
%ADD17ROUNDEDRECTD17*%
%ADD18R,0.067X0.043*%
%ADD19C,0.005*%
G36*
X1777Y188D02*
X1780Y180D01*
X1778Y175D01*
X1745D01*
Y149D01*
X1784D01*
Y167D01*
X1789Y170D01*
X1793Y166D01*
X1802Y163D01*
X1811Y162D01*
X1820Y163D01*
X1829Y166D01*
X1836Y172D01*
X1837Y173D01*
X1844Y174D01*
X1860Y157D01*
X1959D01*
X1964Y162D01*
X1969Y160D01*
Y135D01*
X1964Y133D01*
X1963Y134D01*
X1954Y136D01*
X1914D01*
Y95D01*
Y55D01*
X1954D01*
X1963Y56D01*
X1964Y57D01*
X1969Y55D01*
Y0D01*
X297D01*
X296Y5D01*
X299Y6D01*
X304Y9D01*
X307Y14D01*
X308Y20D01*
X307Y26D01*
X304Y30D01*
X299Y34D01*
X293Y35D01*
X264D01*
X264Y37D01*
X260Y42D01*
X256Y46D01*
X250Y47D01*
X244Y46D01*
X239Y42D01*
X227Y30D01*
X224Y26D01*
X223Y20D01*
X224Y14D01*
X227Y9D01*
X231Y5D01*
X229Y0D01*
X0D01*
Y57D01*
X5Y59D01*
X9Y56D01*
X19Y55D01*
X58D01*
Y95D01*
Y136D01*
X19D01*
X9Y134D01*
X5Y131D01*
X0Y133D01*
Y157D01*
X132D01*
Y164D01*
X137Y166D01*
X144Y163D01*
X154Y162D01*
X163Y163D01*
X168Y165D01*
X173Y162D01*
Y149D01*
X212D01*
Y175D01*
X187D01*
X185Y180D01*
X188Y188D01*
X188Y189D01*
X947D01*
Y59D01*
X1007D01*
Y189D01*
X1777D01*
X1777Y188D01*
D02*
G37*
G36*
X1969Y339D02*
X1914D01*
Y299D01*
Y259D01*
X1969D01*
Y233D01*
X1964Y231D01*
X1959Y237D01*
X1860D01*
X1844Y220D01*
X1837Y221D01*
X1836Y222D01*
X1829Y227D01*
X1820Y231D01*
X1811Y232D01*
X1802Y231D01*
X1793Y227D01*
X1789Y224D01*
X1784Y226D01*
Y245D01*
X1745D01*
Y218D01*
X1778D01*
X1780Y213D01*
X1777Y206D01*
X1777Y205D01*
X1007D01*
Y314D01*
X947D01*
Y205D01*
X188D01*
X188Y206D01*
X185Y213D01*
X187Y218D01*
X212D01*
Y245D01*
X173D01*
Y232D01*
X168Y229D01*
X163Y231D01*
X154Y232D01*
X144Y231D01*
X137Y228D01*
X132Y230D01*
Y237D01*
X0D01*
Y259D01*
X58D01*
Y299D01*
Y339D01*
X0D01*
Y394D01*
X231D01*
X233Y389D01*
X225Y381D01*
X222Y376D01*
X221Y370D01*
X222Y364D01*
X225Y359D01*
X237Y347D01*
X242Y344D01*
X248Y343D01*
X254Y344D01*
X259Y347D01*
X262Y352D01*
X263Y355D01*
X291D01*
X297Y356D01*
X302Y359D01*
X305Y364D01*
X307Y370D01*
X305Y376D01*
X302Y381D01*
X297Y384D01*
X291Y385D01*
X265D01*
X263Y389D01*
X265Y394D01*
X1969D01*
Y339D01*
D02*
G37*
%LPC*%
G36*
X260Y139D02*
X222D01*
Y112D01*
X260D01*
Y139D01*
D02*
G37*
G36*
X212D02*
X173D01*
Y112D01*
X212D01*
Y139D01*
D02*
G37*
G36*
X910Y139D02*
X871D01*
Y112D01*
X910D01*
Y139D01*
D02*
G37*
G36*
X389Y139D02*
X350D01*
Y112D01*
X389D01*
Y139D01*
D02*
G37*
G36*
X673D02*
X635D01*
Y112D01*
X673D01*
Y139D01*
D02*
G37*
G36*
X625D02*
X586D01*
Y112D01*
X625D01*
Y139D01*
D02*
G37*
G36*
X437D02*
X399D01*
Y112D01*
X437D01*
Y139D01*
D02*
G37*
G36*
X1618Y139D02*
X1580D01*
Y112D01*
X1618D01*
Y139D01*
D02*
G37*
G36*
X1334Y139D02*
X1295D01*
Y112D01*
X1334D01*
Y139D01*
D02*
G37*
G36*
X1904Y136D02*
X1865D01*
X1856Y134D01*
X1847Y128D01*
X1842Y120D01*
X1840Y110D01*
Y100D01*
X1904D01*
Y136D01*
D02*
G37*
G36*
X1570Y139D02*
X1531D01*
Y112D01*
X1570D01*
Y139D01*
D02*
G37*
G36*
X1146Y139D02*
X1107D01*
Y112D01*
X1146D01*
Y139D01*
D02*
G37*
G36*
X861Y139D02*
X823D01*
Y112D01*
X861D01*
Y139D01*
D02*
G37*
G36*
X1382Y139D02*
X1344D01*
Y112D01*
X1382D01*
Y139D01*
D02*
G37*
G36*
X1097Y139D02*
X1059D01*
Y112D01*
X1097D01*
Y139D01*
D02*
G37*
G36*
X260Y175D02*
X222D01*
Y149D01*
X260D01*
Y175D01*
D02*
G37*
G36*
X910Y175D02*
X871D01*
Y149D01*
X910D01*
Y175D01*
D02*
G37*
G36*
X861D02*
X823D01*
Y149D01*
X861D01*
Y175D01*
D02*
G37*
G36*
X389Y175D02*
X350D01*
Y149D01*
X389D01*
Y175D01*
D02*
G37*
G36*
X673D02*
X635D01*
Y149D01*
X673D01*
Y175D01*
D02*
G37*
G36*
X625D02*
X586D01*
Y149D01*
X625D01*
Y175D01*
D02*
G37*
G36*
X437D02*
X399D01*
Y149D01*
X437D01*
Y175D01*
D02*
G37*
G36*
X1146Y175D02*
X1107D01*
Y149D01*
X1146D01*
Y175D01*
D02*
G37*
G36*
X1570Y175D02*
X1531D01*
Y149D01*
X1570D01*
Y175D01*
D02*
G37*
G36*
X1784Y139D02*
X1745D01*
Y112D01*
X1784D01*
Y139D01*
D02*
G37*
G36*
X1735D02*
X1697D01*
Y112D01*
X1735D01*
Y139D01*
D02*
G37*
G36*
X1618Y175D02*
X1580D01*
Y149D01*
X1618D01*
Y175D01*
D02*
G37*
G36*
X1097Y175D02*
X1059D01*
Y149D01*
X1097D01*
Y175D01*
D02*
G37*
G36*
X1382Y175D02*
X1344D01*
Y149D01*
X1382D01*
Y175D01*
D02*
G37*
G36*
X1334D02*
X1295D01*
Y149D01*
X1334D01*
Y175D01*
D02*
G37*
G36*
X107Y136D02*
X68D01*
Y100D01*
X133D01*
Y110D01*
X131Y120D01*
X125Y128D01*
X117Y134D01*
X107Y136D01*
D02*
G37*
G36*
X1373Y54D02*
X1344D01*
Y24D01*
X1348Y25D01*
X1356Y28D01*
X1364Y34D01*
X1369Y41D01*
X1373Y50D01*
X1373Y54D01*
D02*
G37*
G36*
X1334D02*
X1304D01*
X1304Y50D01*
X1308Y41D01*
X1314Y34D01*
X1321Y28D01*
X1329Y25D01*
X1334Y24D01*
Y54D01*
D02*
G37*
G36*
X1137D02*
X1107D01*
Y24D01*
X1111Y25D01*
X1120Y28D01*
X1127Y34D01*
X1133Y41D01*
X1136Y50D01*
X1137Y54D01*
D02*
G37*
G36*
X1570D02*
X1540D01*
X1541Y50D01*
X1544Y41D01*
X1550Y34D01*
X1557Y28D01*
X1566Y25D01*
X1570Y24D01*
Y54D01*
D02*
G37*
G36*
X1816Y94D02*
Y59D01*
Y24D01*
X1820Y25D01*
X1829Y28D01*
X1836Y34D01*
X1842Y41D01*
X1845Y50D01*
X1846Y57D01*
X1851Y59D01*
X1851Y59D01*
X1856Y56D01*
X1865Y55D01*
X1904D01*
Y90D01*
X1840D01*
Y87D01*
X1839Y86D01*
X1835Y85D01*
X1829Y90D01*
X1820Y93D01*
X1816Y94D01*
D02*
G37*
G36*
X1806Y54D02*
X1776D01*
X1777Y50D01*
X1780Y41D01*
X1786Y34D01*
X1793Y28D01*
X1802Y25D01*
X1806Y24D01*
Y54D01*
D02*
G37*
G36*
X1609D02*
X1580D01*
Y24D01*
X1584Y25D01*
X1592Y28D01*
X1600Y34D01*
X1605Y41D01*
X1609Y50D01*
X1609Y54D01*
D02*
G37*
G36*
X1097D02*
X1068D01*
X1068Y50D01*
X1072Y41D01*
X1077Y34D01*
X1085Y28D01*
X1093Y25D01*
X1097Y24D01*
Y54D01*
D02*
G37*
G36*
X428D02*
X399D01*
Y24D01*
X403Y25D01*
X411Y28D01*
X419Y34D01*
X424Y41D01*
X428Y50D01*
X428Y54D01*
D02*
G37*
G36*
X389D02*
X359D01*
X360Y50D01*
X363Y41D01*
X369Y34D01*
X376Y28D01*
X385Y25D01*
X389Y24D01*
Y54D01*
D02*
G37*
G36*
X192D02*
X162D01*
Y24D01*
X167Y25D01*
X175Y28D01*
X182Y34D01*
X188Y41D01*
X192Y50D01*
X192Y54D01*
D02*
G37*
G36*
X625D02*
X595D01*
X596Y50D01*
X599Y41D01*
X605Y34D01*
X612Y28D01*
X621Y25D01*
X625Y24D01*
Y54D01*
D02*
G37*
G36*
X901D02*
X871D01*
Y24D01*
X875Y25D01*
X884Y28D01*
X891Y34D01*
X897Y41D01*
X900Y50D01*
X901Y54D01*
D02*
G37*
G36*
X861D02*
X831D01*
X832Y50D01*
X836Y41D01*
X841Y34D01*
X848Y28D01*
X857Y25D01*
X861Y24D01*
Y54D01*
D02*
G37*
G36*
X665D02*
X635D01*
Y24D01*
X639Y25D01*
X648Y28D01*
X655Y34D01*
X660Y41D01*
X664Y50D01*
X665Y54D01*
D02*
G37*
G36*
X1344Y94D02*
Y64D01*
X1373D01*
X1373Y68D01*
X1369Y77D01*
X1364Y84D01*
X1356Y90D01*
X1348Y93D01*
X1344Y94D01*
D02*
G37*
G36*
X1334D02*
X1329Y93D01*
X1321Y90D01*
X1314Y84D01*
X1308Y77D01*
X1304Y68D01*
X1304Y64D01*
X1334D01*
Y94D01*
D02*
G37*
G36*
X1107D02*
Y64D01*
X1137D01*
X1136Y68D01*
X1133Y77D01*
X1127Y84D01*
X1120Y90D01*
X1111Y93D01*
X1107Y94D01*
D02*
G37*
G36*
X1570D02*
X1566Y93D01*
X1557Y90D01*
X1550Y84D01*
X1544Y77D01*
X1541Y68D01*
X1540Y64D01*
X1570D01*
Y94D01*
D02*
G37*
G36*
X152D02*
X148Y93D01*
X140Y90D01*
X137Y87D01*
X133Y90D01*
Y90D01*
X68D01*
Y55D01*
X107D01*
X117Y56D01*
X117Y57D01*
X123Y54D01*
X123Y50D01*
X127Y41D01*
X133Y34D01*
X140Y28D01*
X148Y25D01*
X152Y24D01*
Y59D01*
Y94D01*
D02*
G37*
G36*
X1806D02*
X1802Y93D01*
X1793Y90D01*
X1786Y84D01*
X1780Y77D01*
X1777Y68D01*
X1776Y64D01*
X1806D01*
Y94D01*
D02*
G37*
G36*
X1580D02*
Y64D01*
X1609D01*
X1609Y68D01*
X1605Y77D01*
X1600Y84D01*
X1592Y90D01*
X1584Y93D01*
X1580Y94D01*
D02*
G37*
G36*
X1097D02*
X1093Y93D01*
X1085Y90D01*
X1077Y84D01*
X1072Y77D01*
X1068Y68D01*
X1068Y64D01*
X1097D01*
Y94D01*
D02*
G37*
G36*
X399D02*
Y64D01*
X428D01*
X428Y68D01*
X424Y77D01*
X419Y84D01*
X411Y90D01*
X403Y93D01*
X399Y94D01*
D02*
G37*
G36*
X389D02*
X385Y93D01*
X376Y90D01*
X369Y84D01*
X363Y77D01*
X360Y68D01*
X359Y64D01*
X389D01*
Y94D01*
D02*
G37*
G36*
X162D02*
Y64D01*
X192D01*
X192Y68D01*
X188Y77D01*
X182Y84D01*
X175Y90D01*
X167Y93D01*
X162Y94D01*
D02*
G37*
G36*
X625D02*
X621Y93D01*
X612Y90D01*
X605Y84D01*
X599Y77D01*
X596Y68D01*
X595Y64D01*
X625D01*
Y94D01*
D02*
G37*
G36*
X871D02*
Y64D01*
X901D01*
X900Y68D01*
X897Y77D01*
X891Y84D01*
X884Y90D01*
X875Y93D01*
X871Y94D01*
D02*
G37*
G36*
X861D02*
X857Y93D01*
X848Y90D01*
X841Y84D01*
X836Y77D01*
X832Y68D01*
X831Y64D01*
X861D01*
Y94D01*
D02*
G37*
G36*
X635D02*
Y64D01*
X665D01*
X664Y68D01*
X660Y77D01*
X655Y84D01*
X648Y90D01*
X639Y93D01*
X635Y94D01*
D02*
G37*
G36*
X1735Y175D02*
X1697D01*
Y149D01*
X1735D01*
Y175D01*
D02*
G37*
G36*
X1137Y330D02*
X1107D01*
Y300D01*
X1111Y301D01*
X1120Y304D01*
X1127Y310D01*
X1133Y317D01*
X1136Y326D01*
X1137Y330D01*
D02*
G37*
G36*
X1097D02*
X1068D01*
X1068Y326D01*
X1072Y317D01*
X1077Y310D01*
X1085Y304D01*
X1093Y301D01*
X1097Y300D01*
Y330D01*
D02*
G37*
G36*
X901D02*
X871D01*
Y300D01*
X875Y301D01*
X884Y304D01*
X891Y310D01*
X897Y317D01*
X900Y326D01*
X901Y330D01*
D02*
G37*
G36*
X1334D02*
X1304D01*
X1304Y326D01*
X1308Y317D01*
X1314Y310D01*
X1321Y304D01*
X1329Y301D01*
X1334Y300D01*
Y330D01*
D02*
G37*
G36*
X1609D02*
X1580D01*
Y300D01*
X1584Y301D01*
X1592Y304D01*
X1600Y310D01*
X1605Y317D01*
X1609Y326D01*
X1609Y330D01*
D02*
G37*
G36*
X1570D02*
X1540D01*
X1541Y326D01*
X1544Y317D01*
X1550Y310D01*
X1557Y304D01*
X1566Y301D01*
X1570Y300D01*
Y330D01*
D02*
G37*
G36*
X1373D02*
X1344D01*
Y300D01*
X1348Y301D01*
X1356Y304D01*
X1364Y310D01*
X1369Y317D01*
X1373Y326D01*
X1373Y330D01*
D02*
G37*
G36*
X861D02*
X831D01*
X832Y326D01*
X836Y317D01*
X841Y310D01*
X848Y304D01*
X857Y301D01*
X861Y300D01*
Y330D01*
D02*
G37*
G36*
X192D02*
X162D01*
Y300D01*
X167Y301D01*
X175Y304D01*
X182Y310D01*
X188Y317D01*
X192Y326D01*
X192Y330D01*
D02*
G37*
G36*
X152Y369D02*
X148Y369D01*
X140Y365D01*
X133Y360D01*
X127Y352D01*
X123Y344D01*
X123Y339D01*
X68D01*
Y304D01*
X133D01*
X137Y306D01*
X140Y304D01*
X148Y301D01*
X152Y300D01*
Y335D01*
Y369D01*
D02*
G37*
G36*
X1904Y294D02*
X1840D01*
Y259D01*
X1904D01*
Y294D01*
D02*
G37*
G36*
X389Y330D02*
X359D01*
X360Y326D01*
X363Y317D01*
X369Y310D01*
X376Y304D01*
X385Y301D01*
X389Y300D01*
Y330D01*
D02*
G37*
G36*
X665D02*
X635D01*
Y300D01*
X639Y301D01*
X648Y304D01*
X655Y310D01*
X660Y317D01*
X664Y326D01*
X665Y330D01*
D02*
G37*
G36*
X625D02*
X595D01*
X596Y326D01*
X599Y317D01*
X605Y310D01*
X612Y304D01*
X621Y301D01*
X625Y300D01*
Y330D01*
D02*
G37*
G36*
X428D02*
X399D01*
Y300D01*
X403Y301D01*
X411Y304D01*
X419Y310D01*
X424Y317D01*
X428Y326D01*
X428Y330D01*
D02*
G37*
G36*
X1806D02*
X1776D01*
X1777Y326D01*
X1780Y317D01*
X1786Y310D01*
X1793Y304D01*
X1802Y301D01*
X1806Y300D01*
Y330D01*
D02*
G37*
G36*
X1334Y369D02*
X1329Y369D01*
X1321Y365D01*
X1314Y360D01*
X1308Y352D01*
X1304Y344D01*
X1304Y340D01*
X1334D01*
Y369D01*
D02*
G37*
G36*
X1107D02*
Y340D01*
X1137D01*
X1136Y344D01*
X1133Y352D01*
X1127Y360D01*
X1120Y365D01*
X1111Y369D01*
X1107Y369D01*
D02*
G37*
G36*
X1097D02*
X1093Y369D01*
X1085Y365D01*
X1077Y360D01*
X1072Y352D01*
X1068Y344D01*
X1068Y340D01*
X1097D01*
Y369D01*
D02*
G37*
G36*
X1344D02*
Y340D01*
X1373D01*
X1373Y344D01*
X1369Y352D01*
X1364Y360D01*
X1356Y365D01*
X1348Y369D01*
X1344Y369D01*
D02*
G37*
G36*
X1806D02*
X1802Y369D01*
X1793Y365D01*
X1786Y360D01*
X1780Y352D01*
X1777Y344D01*
X1776Y340D01*
X1806D01*
Y369D01*
D02*
G37*
G36*
X1580D02*
Y340D01*
X1609D01*
X1609Y344D01*
X1605Y352D01*
X1600Y360D01*
X1592Y365D01*
X1584Y369D01*
X1580Y369D01*
D02*
G37*
G36*
X1570D02*
X1566Y369D01*
X1557Y365D01*
X1550Y360D01*
X1544Y352D01*
X1541Y344D01*
X1540Y340D01*
X1570D01*
Y369D01*
D02*
G37*
G36*
X871D02*
Y340D01*
X901D01*
X900Y344D01*
X897Y352D01*
X891Y360D01*
X884Y365D01*
X875Y369D01*
X871Y369D01*
D02*
G37*
G36*
X389D02*
X385Y369D01*
X376Y365D01*
X369Y360D01*
X363Y352D01*
X360Y344D01*
X359Y340D01*
X389D01*
Y369D01*
D02*
G37*
G36*
X162D02*
Y340D01*
X192D01*
X192Y344D01*
X188Y352D01*
X182Y360D01*
X175Y365D01*
X167Y369D01*
X162Y369D01*
D02*
G37*
G36*
X1816D02*
Y335D01*
Y300D01*
X1820Y301D01*
X1829Y304D01*
X1835Y309D01*
X1840Y308D01*
Y304D01*
X1904D01*
Y339D01*
X1846D01*
X1845Y344D01*
X1842Y352D01*
X1836Y360D01*
X1829Y365D01*
X1820Y369D01*
X1816Y369D01*
D02*
G37*
G36*
X399D02*
Y340D01*
X428D01*
X428Y344D01*
X424Y352D01*
X419Y360D01*
X411Y365D01*
X403Y369D01*
X399Y369D01*
D02*
G37*
G36*
X861D02*
X857Y369D01*
X848Y365D01*
X841Y360D01*
X836Y352D01*
X832Y344D01*
X831Y340D01*
X861D01*
Y369D01*
D02*
G37*
G36*
X635D02*
Y340D01*
X665D01*
X664Y344D01*
X660Y352D01*
X655Y360D01*
X648Y365D01*
X639Y369D01*
X635Y369D01*
D02*
G37*
G36*
X625D02*
X621Y369D01*
X612Y365D01*
X605Y360D01*
X599Y352D01*
X596Y344D01*
X595Y340D01*
X625D01*
Y369D01*
D02*
G37*
G36*
X437Y245D02*
X399D01*
Y218D01*
X437D01*
Y245D01*
D02*
G37*
G36*
X389D02*
X350D01*
Y218D01*
X389D01*
Y245D01*
D02*
G37*
G36*
X260D02*
X222D01*
Y218D01*
X260D01*
Y245D01*
D02*
G37*
G36*
X625D02*
X586D01*
Y218D01*
X625D01*
Y245D01*
D02*
G37*
G36*
X1570Y282D02*
X1531D01*
Y255D01*
X1570D01*
Y282D01*
D02*
G37*
G36*
X1735Y245D02*
X1697D01*
Y218D01*
X1735D01*
Y245D01*
D02*
G37*
G36*
X673D02*
X635D01*
Y218D01*
X673D01*
Y245D01*
D02*
G37*
G36*
X910Y245D02*
X871D01*
Y218D01*
X910D01*
Y245D01*
D02*
G37*
G36*
X1334Y245D02*
X1295D01*
Y218D01*
X1334D01*
Y245D01*
D02*
G37*
G36*
X1618Y245D02*
X1580D01*
Y218D01*
X1618D01*
Y245D01*
D02*
G37*
G36*
X1570D02*
X1531D01*
Y218D01*
X1570D01*
Y245D01*
D02*
G37*
G36*
X1382Y245D02*
X1344D01*
Y218D01*
X1382D01*
Y245D01*
D02*
G37*
G36*
X861Y245D02*
X823D01*
Y218D01*
X861D01*
Y245D01*
D02*
G37*
G36*
X1146Y245D02*
X1107D01*
Y218D01*
X1146D01*
Y245D01*
D02*
G37*
G36*
X1097D02*
X1059D01*
Y218D01*
X1097D01*
Y245D01*
D02*
G37*
G36*
X1618Y282D02*
X1580D01*
Y255D01*
X1618D01*
Y282D01*
D02*
G37*
G36*
X625Y282D02*
X586D01*
Y255D01*
X625D01*
Y282D01*
D02*
G37*
G36*
X437D02*
X399D01*
Y255D01*
X437D01*
Y282D01*
D02*
G37*
G36*
X389D02*
X350D01*
Y255D01*
X389D01*
Y282D01*
D02*
G37*
G36*
X673D02*
X635D01*
Y255D01*
X673D01*
Y282D01*
D02*
G37*
G36*
X132Y294D02*
X68D01*
Y259D01*
X132D01*
Y294D01*
D02*
G37*
G36*
X1784Y282D02*
X1745D01*
Y255D01*
X1784D01*
Y282D01*
D02*
G37*
G36*
X1735D02*
X1697D01*
Y255D01*
X1735D01*
Y282D01*
D02*
G37*
G36*
X260D02*
X222D01*
Y255D01*
X260D01*
Y282D01*
D02*
G37*
G36*
X1097Y282D02*
X1059D01*
Y255D01*
X1097D01*
Y282D01*
D02*
G37*
G36*
X1382Y282D02*
X1344D01*
Y255D01*
X1382D01*
Y282D01*
D02*
G37*
G36*
X1334D02*
X1295D01*
Y255D01*
X1334D01*
Y282D01*
D02*
G37*
G36*
X1146Y282D02*
X1107D01*
Y255D01*
X1146D01*
Y282D01*
D02*
G37*
G36*
X212Y282D02*
X173D01*
Y255D01*
X212D01*
Y282D01*
D02*
G37*
G36*
X910Y282D02*
X871D01*
Y255D01*
X910D01*
Y282D01*
D02*
G37*
G36*
X861D02*
X823D01*
Y255D01*
X861D01*
Y282D01*
D02*
G37*
%LPD*%
G36*
X1777Y621D02*
X1780Y613D01*
X1778Y608D01*
X1745D01*
Y582D01*
X1784D01*
Y601D01*
X1789Y603D01*
X1793Y599D01*
X1802Y596D01*
X1811Y595D01*
X1820Y596D01*
X1829Y599D01*
X1836Y605D01*
X1837Y606D01*
X1844Y607D01*
X1860Y590D01*
X1959D01*
X1964Y595D01*
X1969Y593D01*
Y568D01*
X1964Y566D01*
X1963Y567D01*
X1954Y569D01*
X1914D01*
Y528D01*
Y488D01*
X1954D01*
X1963Y490D01*
X1964Y490D01*
X1969Y488D01*
Y433D01*
X297D01*
X296Y438D01*
X299Y439D01*
X304Y442D01*
X307Y447D01*
X308Y453D01*
X307Y459D01*
X304Y464D01*
X299Y467D01*
X293Y468D01*
X264D01*
X264Y470D01*
X260Y475D01*
X256Y479D01*
X250Y480D01*
X244Y479D01*
X239Y475D01*
X227Y464D01*
X224Y459D01*
X223Y453D01*
X224Y447D01*
X227Y442D01*
X231Y438D01*
X229Y433D01*
X0D01*
Y490D01*
X5Y492D01*
X9Y490D01*
X19Y488D01*
X58D01*
Y528D01*
Y569D01*
X19D01*
X9Y567D01*
X5Y564D01*
X0Y567D01*
Y590D01*
X132D01*
Y597D01*
X137Y599D01*
X144Y596D01*
X154Y595D01*
X163Y596D01*
X168Y598D01*
X173Y595D01*
Y582D01*
X212D01*
Y608D01*
X187D01*
X185Y613D01*
X188Y621D01*
X188Y622D01*
X947D01*
Y492D01*
X1007D01*
Y622D01*
X1777D01*
X1777Y621D01*
D02*
G37*
G36*
X1969Y772D02*
X1914D01*
Y732D01*
Y692D01*
X1969D01*
Y666D01*
X1964Y665D01*
X1959Y670D01*
X1860D01*
X1844Y653D01*
X1837Y654D01*
X1836Y655D01*
X1829Y660D01*
X1820Y664D01*
X1811Y665D01*
X1802Y664D01*
X1793Y660D01*
X1789Y657D01*
X1784Y659D01*
Y678D01*
X1745D01*
Y651D01*
X1778D01*
X1780Y646D01*
X1777Y639D01*
X1777Y638D01*
X1007D01*
Y747D01*
X947D01*
Y638D01*
X188D01*
X188Y639D01*
X185Y646D01*
X187Y651D01*
X212D01*
Y678D01*
X173D01*
Y665D01*
X168Y662D01*
X163Y664D01*
X154Y665D01*
X144Y664D01*
X137Y661D01*
X132Y663D01*
Y670D01*
X0D01*
Y692D01*
X58D01*
Y732D01*
Y772D01*
X0D01*
Y827D01*
X231D01*
X233Y822D01*
X225Y814D01*
X222Y809D01*
X221Y803D01*
X222Y797D01*
X225Y792D01*
X237Y781D01*
X242Y777D01*
X248Y776D01*
X254Y777D01*
X259Y781D01*
X262Y785D01*
X263Y788D01*
X291D01*
X297Y789D01*
X302Y792D01*
X305Y797D01*
X307Y803D01*
X305Y809D01*
X302Y814D01*
X297Y817D01*
X291Y818D01*
X265D01*
X263Y822D01*
X265Y827D01*
X1969D01*
Y772D01*
D02*
G37*
%LPC*%
G36*
X260Y572D02*
X222D01*
Y545D01*
X260D01*
Y572D01*
D02*
G37*
G36*
X212D02*
X173D01*
Y545D01*
X212D01*
Y572D01*
D02*
G37*
G36*
X910Y572D02*
X871D01*
Y545D01*
X910D01*
Y572D01*
D02*
G37*
G36*
X389Y572D02*
X350D01*
Y545D01*
X389D01*
Y572D01*
D02*
G37*
G36*
X673D02*
X635D01*
Y545D01*
X673D01*
Y572D01*
D02*
G37*
G36*
X625D02*
X586D01*
Y545D01*
X625D01*
Y572D01*
D02*
G37*
G36*
X437D02*
X399D01*
Y545D01*
X437D01*
Y572D01*
D02*
G37*
G36*
X1618Y572D02*
X1580D01*
Y545D01*
X1618D01*
Y572D01*
D02*
G37*
G36*
X1334Y572D02*
X1295D01*
Y545D01*
X1334D01*
Y572D01*
D02*
G37*
G36*
X1904Y569D02*
X1865D01*
X1856Y567D01*
X1847Y561D01*
X1842Y553D01*
X1840Y543D01*
Y533D01*
X1904D01*
Y569D01*
D02*
G37*
G36*
X1570Y572D02*
X1531D01*
Y545D01*
X1570D01*
Y572D01*
D02*
G37*
G36*
X1146Y572D02*
X1107D01*
Y545D01*
X1146D01*
Y572D01*
D02*
G37*
G36*
X861Y572D02*
X823D01*
Y545D01*
X861D01*
Y572D01*
D02*
G37*
G36*
X1382Y572D02*
X1344D01*
Y545D01*
X1382D01*
Y572D01*
D02*
G37*
G36*
X1097Y572D02*
X1059D01*
Y545D01*
X1097D01*
Y572D01*
D02*
G37*
G36*
X260Y608D02*
X222D01*
Y582D01*
X260D01*
Y608D01*
D02*
G37*
G36*
X910Y608D02*
X871D01*
Y582D01*
X910D01*
Y608D01*
D02*
G37*
G36*
X861D02*
X823D01*
Y582D01*
X861D01*
Y608D01*
D02*
G37*
G36*
X389Y608D02*
X350D01*
Y582D01*
X389D01*
Y608D01*
D02*
G37*
G36*
X673D02*
X635D01*
Y582D01*
X673D01*
Y608D01*
D02*
G37*
G36*
X625D02*
X586D01*
Y582D01*
X625D01*
Y608D01*
D02*
G37*
G36*
X437D02*
X399D01*
Y582D01*
X437D01*
Y608D01*
D02*
G37*
G36*
X1146Y608D02*
X1107D01*
Y582D01*
X1146D01*
Y608D01*
D02*
G37*
G36*
X1570Y608D02*
X1531D01*
Y582D01*
X1570D01*
Y608D01*
D02*
G37*
G36*
X1784Y572D02*
X1745D01*
Y545D01*
X1784D01*
Y572D01*
D02*
G37*
G36*
X1735D02*
X1697D01*
Y545D01*
X1735D01*
Y572D01*
D02*
G37*
G36*
X1618Y608D02*
X1580D01*
Y582D01*
X1618D01*
Y608D01*
D02*
G37*
G36*
X1097Y608D02*
X1059D01*
Y582D01*
X1097D01*
Y608D01*
D02*
G37*
G36*
X1382Y608D02*
X1344D01*
Y582D01*
X1382D01*
Y608D01*
D02*
G37*
G36*
X1334D02*
X1295D01*
Y582D01*
X1334D01*
Y608D01*
D02*
G37*
G36*
X107Y569D02*
X68D01*
Y533D01*
X133D01*
Y543D01*
X131Y553D01*
X125Y561D01*
X117Y567D01*
X107Y569D01*
D02*
G37*
G36*
X1373Y487D02*
X1344D01*
Y457D01*
X1348Y458D01*
X1356Y462D01*
X1364Y467D01*
X1369Y474D01*
X1373Y483D01*
X1373Y487D01*
D02*
G37*
G36*
X1334D02*
X1304D01*
X1304Y483D01*
X1308Y474D01*
X1314Y467D01*
X1321Y462D01*
X1329Y458D01*
X1334Y457D01*
Y487D01*
D02*
G37*
G36*
X1137D02*
X1107D01*
Y457D01*
X1111Y458D01*
X1120Y462D01*
X1127Y467D01*
X1133Y474D01*
X1136Y483D01*
X1137Y487D01*
D02*
G37*
G36*
X1570D02*
X1540D01*
X1541Y483D01*
X1544Y474D01*
X1550Y467D01*
X1557Y462D01*
X1566Y458D01*
X1570Y457D01*
Y487D01*
D02*
G37*
G36*
X1816Y527D02*
Y492D01*
Y457D01*
X1820Y458D01*
X1829Y462D01*
X1836Y467D01*
X1842Y474D01*
X1845Y483D01*
X1846Y490D01*
X1851Y492D01*
X1851Y493D01*
X1856Y490D01*
X1865Y488D01*
X1904D01*
Y523D01*
X1840D01*
Y520D01*
X1839Y519D01*
X1835Y518D01*
X1829Y523D01*
X1820Y526D01*
X1816Y527D01*
D02*
G37*
G36*
X1806Y487D02*
X1776D01*
X1777Y483D01*
X1780Y474D01*
X1786Y467D01*
X1793Y462D01*
X1802Y458D01*
X1806Y457D01*
Y487D01*
D02*
G37*
G36*
X1609D02*
X1580D01*
Y457D01*
X1584Y458D01*
X1592Y462D01*
X1600Y467D01*
X1605Y474D01*
X1609Y483D01*
X1609Y487D01*
D02*
G37*
G36*
X1097D02*
X1068D01*
X1068Y483D01*
X1072Y474D01*
X1077Y467D01*
X1085Y462D01*
X1093Y458D01*
X1097Y457D01*
Y487D01*
D02*
G37*
G36*
X428D02*
X399D01*
Y457D01*
X403Y458D01*
X411Y462D01*
X419Y467D01*
X424Y474D01*
X428Y483D01*
X428Y487D01*
D02*
G37*
G36*
X389D02*
X359D01*
X360Y483D01*
X363Y474D01*
X369Y467D01*
X376Y462D01*
X385Y458D01*
X389Y457D01*
Y487D01*
D02*
G37*
G36*
X192D02*
X162D01*
Y457D01*
X167Y458D01*
X175Y462D01*
X182Y467D01*
X188Y474D01*
X192Y483D01*
X192Y487D01*
D02*
G37*
G36*
X625D02*
X595D01*
X596Y483D01*
X599Y474D01*
X605Y467D01*
X612Y462D01*
X621Y458D01*
X625Y457D01*
Y487D01*
D02*
G37*
G36*
X901D02*
X871D01*
Y457D01*
X875Y458D01*
X884Y462D01*
X891Y467D01*
X897Y474D01*
X900Y483D01*
X901Y487D01*
D02*
G37*
G36*
X861D02*
X831D01*
X832Y483D01*
X836Y474D01*
X841Y467D01*
X848Y462D01*
X857Y458D01*
X861Y457D01*
Y487D01*
D02*
G37*
G36*
X665D02*
X635D01*
Y457D01*
X639Y458D01*
X648Y462D01*
X655Y467D01*
X660Y474D01*
X664Y483D01*
X665Y487D01*
D02*
G37*
G36*
X1344Y527D02*
Y497D01*
X1373D01*
X1373Y501D01*
X1369Y510D01*
X1364Y517D01*
X1356Y523D01*
X1348Y526D01*
X1344Y527D01*
D02*
G37*
G36*
X1334D02*
X1329Y526D01*
X1321Y523D01*
X1314Y517D01*
X1308Y510D01*
X1304Y501D01*
X1304Y497D01*
X1334D01*
Y527D01*
D02*
G37*
G36*
X1107D02*
Y497D01*
X1137D01*
X1136Y501D01*
X1133Y510D01*
X1127Y517D01*
X1120Y523D01*
X1111Y526D01*
X1107Y527D01*
D02*
G37*
G36*
X1570D02*
X1566Y526D01*
X1557Y523D01*
X1550Y517D01*
X1544Y510D01*
X1541Y501D01*
X1540Y497D01*
X1570D01*
Y527D01*
D02*
G37*
G36*
X152D02*
X148Y526D01*
X140Y523D01*
X137Y521D01*
X133Y523D01*
Y523D01*
X68D01*
Y488D01*
X107D01*
X117Y490D01*
X117Y490D01*
X123Y488D01*
X123Y483D01*
X127Y474D01*
X133Y467D01*
X140Y462D01*
X148Y458D01*
X152Y457D01*
Y492D01*
Y527D01*
D02*
G37*
G36*
X1806D02*
X1802Y526D01*
X1793Y523D01*
X1786Y517D01*
X1780Y510D01*
X1777Y501D01*
X1776Y497D01*
X1806D01*
Y527D01*
D02*
G37*
G36*
X1580D02*
Y497D01*
X1609D01*
X1609Y501D01*
X1605Y510D01*
X1600Y517D01*
X1592Y523D01*
X1584Y526D01*
X1580Y527D01*
D02*
G37*
G36*
X1097D02*
X1093Y526D01*
X1085Y523D01*
X1077Y517D01*
X1072Y510D01*
X1068Y501D01*
X1068Y497D01*
X1097D01*
Y527D01*
D02*
G37*
G36*
X399D02*
Y497D01*
X428D01*
X428Y501D01*
X424Y510D01*
X419Y517D01*
X411Y523D01*
X403Y526D01*
X399Y527D01*
D02*
G37*
G36*
X389D02*
X385Y526D01*
X376Y523D01*
X369Y517D01*
X363Y510D01*
X360Y501D01*
X359Y497D01*
X389D01*
Y527D01*
D02*
G37*
G36*
X162D02*
Y497D01*
X192D01*
X192Y501D01*
X188Y510D01*
X182Y517D01*
X175Y523D01*
X167Y526D01*
X162Y527D01*
D02*
G37*
G36*
X625D02*
X621Y526D01*
X612Y523D01*
X605Y517D01*
X599Y510D01*
X596Y501D01*
X595Y497D01*
X625D01*
Y527D01*
D02*
G37*
G36*
X871D02*
Y497D01*
X901D01*
X900Y501D01*
X897Y510D01*
X891Y517D01*
X884Y523D01*
X875Y526D01*
X871Y527D01*
D02*
G37*
G36*
X861D02*
X857Y526D01*
X848Y523D01*
X841Y517D01*
X836Y510D01*
X832Y501D01*
X831Y497D01*
X861D01*
Y527D01*
D02*
G37*
G36*
X635D02*
Y497D01*
X665D01*
X664Y501D01*
X660Y510D01*
X655Y517D01*
X648Y523D01*
X639Y526D01*
X635Y527D01*
D02*
G37*
G36*
X1735Y608D02*
X1697D01*
Y582D01*
X1735D01*
Y608D01*
D02*
G37*
G36*
X1137Y763D02*
X1107D01*
Y733D01*
X1111Y734D01*
X1120Y737D01*
X1127Y743D01*
X1133Y750D01*
X1136Y759D01*
X1137Y763D01*
D02*
G37*
G36*
X1097D02*
X1068D01*
X1068Y759D01*
X1072Y750D01*
X1077Y743D01*
X1085Y737D01*
X1093Y734D01*
X1097Y733D01*
Y763D01*
D02*
G37*
G36*
X901D02*
X871D01*
Y733D01*
X875Y734D01*
X884Y737D01*
X891Y743D01*
X897Y750D01*
X900Y759D01*
X901Y763D01*
D02*
G37*
G36*
X1334D02*
X1304D01*
X1304Y759D01*
X1308Y750D01*
X1314Y743D01*
X1321Y737D01*
X1329Y734D01*
X1334Y733D01*
Y763D01*
D02*
G37*
G36*
X1609D02*
X1580D01*
Y733D01*
X1584Y734D01*
X1592Y737D01*
X1600Y743D01*
X1605Y750D01*
X1609Y759D01*
X1609Y763D01*
D02*
G37*
G36*
X1570D02*
X1540D01*
X1541Y759D01*
X1544Y750D01*
X1550Y743D01*
X1557Y737D01*
X1566Y734D01*
X1570Y733D01*
Y763D01*
D02*
G37*
G36*
X1373D02*
X1344D01*
Y733D01*
X1348Y734D01*
X1356Y737D01*
X1364Y743D01*
X1369Y750D01*
X1373Y759D01*
X1373Y763D01*
D02*
G37*
G36*
X861D02*
X831D01*
X832Y759D01*
X836Y750D01*
X841Y743D01*
X848Y737D01*
X857Y734D01*
X861Y733D01*
Y763D01*
D02*
G37*
G36*
X192D02*
X162D01*
Y733D01*
X167Y734D01*
X175Y737D01*
X182Y743D01*
X188Y750D01*
X192Y759D01*
X192Y763D01*
D02*
G37*
G36*
X152Y802D02*
X148Y802D01*
X140Y798D01*
X133Y793D01*
X127Y785D01*
X123Y777D01*
X123Y772D01*
X68D01*
Y737D01*
X133D01*
X137Y739D01*
X140Y737D01*
X148Y734D01*
X152Y733D01*
Y768D01*
Y802D01*
D02*
G37*
G36*
X1904Y727D02*
X1840D01*
Y692D01*
X1904D01*
Y727D01*
D02*
G37*
G36*
X389Y763D02*
X359D01*
X360Y759D01*
X363Y750D01*
X369Y743D01*
X376Y737D01*
X385Y734D01*
X389Y733D01*
Y763D01*
D02*
G37*
G36*
X665D02*
X635D01*
Y733D01*
X639Y734D01*
X648Y737D01*
X655Y743D01*
X660Y750D01*
X664Y759D01*
X665Y763D01*
D02*
G37*
G36*
X625D02*
X595D01*
X596Y759D01*
X599Y750D01*
X605Y743D01*
X612Y737D01*
X621Y734D01*
X625Y733D01*
Y763D01*
D02*
G37*
G36*
X428D02*
X399D01*
Y733D01*
X403Y734D01*
X411Y737D01*
X419Y743D01*
X424Y750D01*
X428Y759D01*
X428Y763D01*
D02*
G37*
G36*
X1806D02*
X1776D01*
X1777Y759D01*
X1780Y750D01*
X1786Y743D01*
X1793Y737D01*
X1802Y734D01*
X1806Y733D01*
Y763D01*
D02*
G37*
G36*
X1334Y802D02*
X1329Y802D01*
X1321Y798D01*
X1314Y793D01*
X1308Y785D01*
X1304Y777D01*
X1304Y773D01*
X1334D01*
Y802D01*
D02*
G37*
G36*
X1107D02*
Y773D01*
X1137D01*
X1136Y777D01*
X1133Y785D01*
X1127Y793D01*
X1120Y798D01*
X1111Y802D01*
X1107Y802D01*
D02*
G37*
G36*
X1097D02*
X1093Y802D01*
X1085Y798D01*
X1077Y793D01*
X1072Y785D01*
X1068Y777D01*
X1068Y773D01*
X1097D01*
Y802D01*
D02*
G37*
G36*
X1344D02*
Y773D01*
X1373D01*
X1373Y777D01*
X1369Y785D01*
X1364Y793D01*
X1356Y798D01*
X1348Y802D01*
X1344Y802D01*
D02*
G37*
G36*
X1806D02*
X1802Y802D01*
X1793Y798D01*
X1786Y793D01*
X1780Y785D01*
X1777Y777D01*
X1776Y773D01*
X1806D01*
Y802D01*
D02*
G37*
G36*
X1580D02*
Y773D01*
X1609D01*
X1609Y777D01*
X1605Y785D01*
X1600Y793D01*
X1592Y798D01*
X1584Y802D01*
X1580Y802D01*
D02*
G37*
G36*
X1570D02*
X1566Y802D01*
X1557Y798D01*
X1550Y793D01*
X1544Y785D01*
X1541Y777D01*
X1540Y773D01*
X1570D01*
Y802D01*
D02*
G37*
G36*
X871D02*
Y773D01*
X901D01*
X900Y777D01*
X897Y785D01*
X891Y793D01*
X884Y798D01*
X875Y802D01*
X871Y802D01*
D02*
G37*
G36*
X389D02*
X385Y802D01*
X376Y798D01*
X369Y793D01*
X363Y785D01*
X360Y777D01*
X359Y773D01*
X389D01*
Y802D01*
D02*
G37*
G36*
X162D02*
Y773D01*
X192D01*
X192Y777D01*
X188Y785D01*
X182Y793D01*
X175Y798D01*
X167Y802D01*
X162Y802D01*
D02*
G37*
G36*
X1816D02*
Y768D01*
Y733D01*
X1820Y734D01*
X1829Y737D01*
X1835Y742D01*
X1840Y741D01*
Y737D01*
X1904D01*
Y772D01*
X1846D01*
X1845Y777D01*
X1842Y785D01*
X1836Y793D01*
X1829Y798D01*
X1820Y802D01*
X1816Y802D01*
D02*
G37*
G36*
X399D02*
Y773D01*
X428D01*
X428Y777D01*
X424Y785D01*
X419Y793D01*
X411Y798D01*
X403Y802D01*
X399Y802D01*
D02*
G37*
G36*
X861D02*
X857Y802D01*
X848Y798D01*
X841Y793D01*
X836Y785D01*
X832Y777D01*
X831Y773D01*
X861D01*
Y802D01*
D02*
G37*
G36*
X635D02*
Y773D01*
X665D01*
X664Y777D01*
X660Y785D01*
X655Y793D01*
X648Y798D01*
X639Y802D01*
X635Y802D01*
D02*
G37*
G36*
X625D02*
X621Y802D01*
X612Y798D01*
X605Y793D01*
X599Y785D01*
X596Y777D01*
X595Y773D01*
X625D01*
Y802D01*
D02*
G37*
G36*
X437Y678D02*
X399D01*
Y651D01*
X437D01*
Y678D01*
D02*
G37*
G36*
X389D02*
X350D01*
Y651D01*
X389D01*
Y678D01*
D02*
G37*
G36*
X260D02*
X222D01*
Y651D01*
X260D01*
Y678D01*
D02*
G37*
G36*
X625D02*
X586D01*
Y651D01*
X625D01*
Y678D01*
D02*
G37*
G36*
X1570Y715D02*
X1531D01*
Y688D01*
X1570D01*
Y715D01*
D02*
G37*
G36*
X1735Y678D02*
X1697D01*
Y651D01*
X1735D01*
Y678D01*
D02*
G37*
G36*
X673D02*
X635D01*
Y651D01*
X673D01*
Y678D01*
D02*
G37*
G36*
X910Y678D02*
X871D01*
Y651D01*
X910D01*
Y678D01*
D02*
G37*
G36*
X1334Y678D02*
X1295D01*
Y651D01*
X1334D01*
Y678D01*
D02*
G37*
G36*
X1618Y678D02*
X1580D01*
Y651D01*
X1618D01*
Y678D01*
D02*
G37*
G36*
X1570D02*
X1531D01*
Y651D01*
X1570D01*
Y678D01*
D02*
G37*
G36*
X1382Y678D02*
X1344D01*
Y651D01*
X1382D01*
Y678D01*
D02*
G37*
G36*
X861Y678D02*
X823D01*
Y651D01*
X861D01*
Y678D01*
D02*
G37*
G36*
X1146Y678D02*
X1107D01*
Y651D01*
X1146D01*
Y678D01*
D02*
G37*
G36*
X1097D02*
X1059D01*
Y651D01*
X1097D01*
Y678D01*
D02*
G37*
G36*
X1618Y715D02*
X1580D01*
Y688D01*
X1618D01*
Y715D01*
D02*
G37*
G36*
X625Y715D02*
X586D01*
Y688D01*
X625D01*
Y715D01*
D02*
G37*
G36*
X437D02*
X399D01*
Y688D01*
X437D01*
Y715D01*
D02*
G37*
G36*
X389D02*
X350D01*
Y688D01*
X389D01*
Y715D01*
D02*
G37*
G36*
X673D02*
X635D01*
Y688D01*
X673D01*
Y715D01*
D02*
G37*
G36*
X132Y727D02*
X68D01*
Y692D01*
X132D01*
Y727D01*
D02*
G37*
G36*
X1784Y715D02*
X1745D01*
Y688D01*
X1784D01*
Y715D01*
D02*
G37*
G36*
X1735D02*
X1697D01*
Y688D01*
X1735D01*
Y715D01*
D02*
G37*
G36*
X260D02*
X222D01*
Y688D01*
X260D01*
Y715D01*
D02*
G37*
G36*
X1097Y715D02*
X1059D01*
Y688D01*
X1097D01*
Y715D01*
D02*
G37*
G36*
X1382Y715D02*
X1344D01*
Y688D01*
X1382D01*
Y715D01*
D02*
G37*
G36*
X1334D02*
X1295D01*
Y688D01*
X1334D01*
Y715D01*
D02*
G37*
G36*
X1146Y715D02*
X1107D01*
Y688D01*
X1146D01*
Y715D01*
D02*
G37*
G36*
X212Y715D02*
X173D01*
Y688D01*
X212D01*
Y715D01*
D02*
G37*
G36*
X910Y715D02*
X871D01*
Y688D01*
X910D01*
Y715D01*
D02*
G37*
G36*
X861D02*
X823D01*
Y688D01*
X861D01*
Y715D01*
D02*
G37*
%LPD*%
D13*
X236Y370D02*
X248Y382D01*
X236Y370D02*
X248Y358D01*
X236Y370D02*
X291D01*
X238Y20D02*
X293D01*
X238D02*
X250Y8D01*
X238Y20D02*
X250Y31D01*
X1811Y197D02*
X1909D01*
X67D02*
X154D01*
X236Y803D02*
X248Y815D01*
X236Y803D02*
X248Y791D01*
X236Y803D02*
X291D01*
X238Y453D02*
X293D01*
X238D02*
X250Y441D01*
X238Y453D02*
X250Y465D01*
X1811Y630D02*
X1909D01*
X67D02*
X154D01*
D14*
X1811Y197D02*
D03*
X154D02*
D03*
X630Y335D02*
D03*
X866D02*
D03*
X1102D02*
D03*
X1339D02*
D03*
X1575D02*
D03*
X1811D02*
D03*
Y59D02*
D03*
X1575D02*
D03*
X1339D02*
D03*
X1102D02*
D03*
X866D02*
D03*
X630D02*
D03*
X394D02*
D03*
X157D02*
D03*
X394Y335D02*
D03*
X157D02*
D03*
X1811Y630D02*
D03*
X154D02*
D03*
X630Y768D02*
D03*
X866D02*
D03*
X1102D02*
D03*
X1339D02*
D03*
X1575D02*
D03*
X1811D02*
D03*
Y492D02*
D03*
X1575D02*
D03*
X1339D02*
D03*
X1102D02*
D03*
X866D02*
D03*
X630D02*
D03*
X394D02*
D03*
X157D02*
D03*
X394Y768D02*
D03*
X157D02*
D03*
D15*
X1909Y299D02*
D03*
X63Y197D02*
D03*
Y299D02*
D03*
X1909Y732D02*
D03*
X63Y630D02*
D03*
Y732D02*
D03*
D16*
X1909Y197D02*
D03*
Y630D02*
D03*
D17*
Y95D02*
D03*
X63D02*
D03*
X1909Y528D02*
D03*
X63D02*
D03*
D18*
X217Y144D02*
D03*
Y250D02*
D03*
X630Y144D02*
D03*
Y250D02*
D03*
X394Y144D02*
D03*
Y250D02*
D03*
X866Y144D02*
D03*
Y250D02*
D03*
X1339Y144D02*
D03*
Y250D02*
D03*
X1575Y144D02*
D03*
Y250D02*
D03*
X1740Y144D02*
D03*
Y250D02*
D03*
X1102Y144D02*
D03*
Y250D02*
D03*
X217Y577D02*
D03*
Y683D02*
D03*
X630Y577D02*
D03*
Y683D02*
D03*
X394Y577D02*
D03*
Y683D02*
D03*
X866Y577D02*
D03*
Y683D02*
D03*
X1339Y577D02*
D03*
Y683D02*
D03*
X1575Y577D02*
D03*
Y683D02*
D03*
X1740Y577D02*
D03*
Y683D02*
D03*
X1102Y577D02*
D03*
Y683D02*
D03*
D19*
X962Y299D02*
X992D01*
Y284D01*
X987Y279D01*
X967D01*
X962Y284D01*
Y299D01*
X972Y269D02*
X992D01*
X982D01*
X977Y264D01*
X972Y259D01*
Y254D01*
X992Y239D02*
Y229D01*
Y234D01*
X972D01*
Y239D01*
X992Y199D02*
Y209D01*
X987Y214D01*
X977D01*
X972Y209D01*
Y199D01*
X977Y194D01*
X982D01*
Y214D01*
X992Y184D02*
Y169D01*
X987Y164D01*
X982Y169D01*
Y179D01*
X977Y184D01*
X972Y179D01*
Y164D01*
X967Y154D02*
X962Y149D01*
Y139D01*
X967Y134D01*
X987D01*
X992Y139D01*
Y149D01*
X987Y154D01*
X967D01*
Y124D02*
X962Y119D01*
Y109D01*
X967Y104D01*
X987D01*
X992Y109D01*
Y119D01*
X987Y124D01*
X967D01*
X962Y94D02*
Y74D01*
X967D01*
X987Y94D01*
X992D01*
X962Y732D02*
X992D01*
Y717D01*
X987Y712D01*
X967D01*
X962Y717D01*
Y732D01*
X972Y702D02*
X992D01*
X982D01*
X977Y697D01*
X972Y692D01*
Y687D01*
X992Y672D02*
Y662D01*
Y667D01*
X972D01*
Y672D01*
X992Y632D02*
Y642D01*
X987Y647D01*
X977D01*
X972Y642D01*
Y632D01*
X977Y627D01*
X982D01*
Y647D01*
X992Y617D02*
Y602D01*
X987Y597D01*
X982Y602D01*
Y612D01*
X977Y617D01*
X972Y612D01*
Y597D01*
X967Y587D02*
X962Y582D01*
Y572D01*
X967Y567D01*
X987D01*
X992Y572D01*
Y582D01*
X987Y587D01*
X967D01*
Y557D02*
X962Y552D01*
Y542D01*
X967Y537D01*
X987D01*
X992Y542D01*
Y552D01*
X987Y557D01*
X967D01*
X962Y527D02*
Y507D01*
X967D01*
X987Y527D01*
X992D01*
M02*
