G04 Layer_Color=2752767*
%FSLAX23Y23*%
%MOIN*%
G70*
G01*
G75*
%ADD39C,0.002*%
%ADD40C,0.003*%
D39*
X1911Y1911D02*
Y1927D01*
X1927D01*
Y1911D01*
X1911D01*
Y1811D02*
Y1827D01*
X1927D01*
Y1811D01*
X1911D01*
Y1711D02*
Y1727D01*
X1927D01*
Y1711D01*
X1911D01*
Y1611D02*
Y1627D01*
X1927D01*
Y1611D01*
X1911D01*
Y1511D02*
Y1527D01*
X1927D01*
Y1511D01*
X1911D01*
Y1411D02*
Y1427D01*
X1927D01*
Y1411D01*
X1911D01*
Y1311D02*
Y1327D01*
X1927D01*
Y1311D01*
X1911D01*
Y1211D02*
Y1227D01*
X1927D01*
Y1211D01*
X1911D01*
Y1111D02*
Y1127D01*
X1927D01*
Y1111D01*
X1911D01*
Y1011D02*
Y1027D01*
X1927D01*
Y1011D01*
X1911D01*
Y911D02*
Y927D01*
X1927D01*
Y911D01*
X1911D01*
X1061Y1911D02*
Y1927D01*
X1077D01*
Y1911D01*
X1061D01*
Y1811D02*
Y1827D01*
X1077D01*
Y1811D01*
X1061D01*
Y1711D02*
Y1727D01*
X1077D01*
Y1711D01*
X1061D01*
Y1611D02*
Y1627D01*
X1077D01*
Y1611D01*
X1061D01*
Y1511D02*
Y1527D01*
X1077D01*
Y1511D01*
X1061D01*
Y1411D02*
Y1427D01*
X1077D01*
Y1411D01*
X1061D01*
Y1311D02*
Y1327D01*
X1077D01*
Y1311D01*
X1061D01*
Y1211D02*
Y1227D01*
X1077D01*
Y1211D01*
X1061D01*
Y1111D02*
Y1127D01*
X1077D01*
Y1111D01*
X1061D01*
Y1011D02*
Y1027D01*
X1077D01*
Y1011D01*
X1061D01*
Y911D02*
Y927D01*
X1077D01*
Y911D01*
X1061D01*
X1641D02*
Y927D01*
X1657D01*
Y911D01*
X1641D01*
X1541D02*
Y927D01*
X1557D01*
Y911D01*
X1541D01*
X1441D02*
Y927D01*
X1457D01*
Y911D01*
X1441D01*
X1341D02*
Y927D01*
X1357D01*
Y911D01*
X1341D01*
X892Y1911D02*
Y1927D01*
X908D01*
Y1911D01*
X892D01*
Y1811D02*
Y1827D01*
X908D01*
Y1811D01*
X892D01*
Y1711D02*
Y1727D01*
X908D01*
Y1711D01*
X892D01*
Y1611D02*
Y1627D01*
X908D01*
Y1611D01*
X892D01*
Y1511D02*
Y1527D01*
X908D01*
Y1511D01*
X892D01*
Y1411D02*
Y1427D01*
X908D01*
Y1411D01*
X892D01*
Y1311D02*
Y1327D01*
X908D01*
Y1311D01*
X892D01*
Y1211D02*
Y1227D01*
X908D01*
Y1211D01*
X892D01*
Y1111D02*
Y1127D01*
X908D01*
Y1111D01*
X892D01*
Y1011D02*
Y1027D01*
X908D01*
Y1011D01*
X892D01*
Y911D02*
Y927D01*
X908D01*
Y911D01*
X892D01*
X42Y1911D02*
Y1927D01*
X58D01*
Y1911D01*
X42D01*
Y1811D02*
Y1827D01*
X58D01*
Y1811D01*
X42D01*
Y1711D02*
Y1727D01*
X58D01*
Y1711D01*
X42D01*
Y1611D02*
Y1627D01*
X58D01*
Y1611D01*
X42D01*
Y1511D02*
Y1527D01*
X58D01*
Y1511D01*
X42D01*
Y1411D02*
Y1427D01*
X58D01*
Y1411D01*
X42D01*
Y1311D02*
Y1327D01*
X58D01*
Y1311D01*
X42D01*
Y1211D02*
Y1227D01*
X58D01*
Y1211D01*
X42D01*
Y1111D02*
Y1127D01*
X58D01*
Y1111D01*
X42D01*
Y1011D02*
Y1027D01*
X58D01*
Y1011D01*
X42D01*
Y911D02*
Y927D01*
X58D01*
Y911D01*
X42D01*
X622D02*
Y927D01*
X638D01*
Y911D01*
X622D01*
X522D02*
Y927D01*
X538D01*
Y911D01*
X522D01*
X422D02*
Y927D01*
X438D01*
Y911D01*
X422D01*
X322D02*
Y927D01*
X338D01*
Y911D01*
X322D01*
X1811Y189D02*
X1803Y205D01*
X1819D01*
X1811Y189D01*
X154D02*
X146Y205D01*
X162D01*
X154Y189D01*
X630Y327D02*
X622Y343D01*
X638D01*
X630Y327D01*
X866D02*
X858Y343D01*
X874D01*
X866Y327D01*
X1102D02*
X1094Y343D01*
X1110D01*
X1102Y327D01*
X1339D02*
X1331Y343D01*
X1347D01*
X1339Y327D01*
X1575D02*
X1567Y343D01*
X1583D01*
X1575Y327D01*
X1811D02*
X1803Y343D01*
X1819D01*
X1811Y327D01*
Y51D02*
X1803Y67D01*
X1819D01*
X1811Y51D01*
X1575D02*
X1567Y67D01*
X1583D01*
X1575Y51D01*
X1339D02*
X1331Y67D01*
X1347D01*
X1339Y51D01*
X1102D02*
X1094Y67D01*
X1110D01*
X1102Y51D01*
X866D02*
X858Y67D01*
X874D01*
X866Y51D01*
X630D02*
X622Y67D01*
X638D01*
X630Y51D01*
X394D02*
X386Y67D01*
X402D01*
X394Y51D01*
X157D02*
X149Y67D01*
X165D01*
X157Y51D01*
X394Y327D02*
X386Y343D01*
X402D01*
X394Y327D01*
X157D02*
X149Y343D01*
X165D01*
X157Y327D01*
X1811Y622D02*
X1803Y638D01*
X1819D01*
X1811Y622D01*
X154D02*
X146Y638D01*
X162D01*
X154Y622D01*
X630Y760D02*
X622Y776D01*
X638D01*
X630Y760D01*
X866D02*
X858Y776D01*
X874D01*
X866Y760D01*
X1102D02*
X1094Y776D01*
X1110D01*
X1102Y760D01*
X1339D02*
X1331Y776D01*
X1347D01*
X1339Y760D01*
X1575D02*
X1567Y776D01*
X1583D01*
X1575Y760D01*
X1811D02*
X1803Y776D01*
X1819D01*
X1811Y760D01*
Y484D02*
X1803Y500D01*
X1819D01*
X1811Y484D01*
X1575D02*
X1567Y500D01*
X1583D01*
X1575Y484D01*
X1339D02*
X1331Y500D01*
X1347D01*
X1339Y484D01*
X1102D02*
X1094Y500D01*
X1110D01*
X1102Y484D01*
X866D02*
X858Y500D01*
X874D01*
X866Y484D01*
X630D02*
X622Y500D01*
X638D01*
X630Y484D01*
X394D02*
X386Y500D01*
X402D01*
X394Y484D01*
X157D02*
X149Y500D01*
X165D01*
X157Y484D01*
X394Y760D02*
X386Y776D01*
X402D01*
X394Y760D01*
X157D02*
X149Y776D01*
X165D01*
X157Y760D01*
D40*
X1327Y1719D02*
G03*
X1327Y1719I-8J0D01*
G01*
X1687D02*
G03*
X1687Y1719I-8J0D01*
G01*
X1497Y1389D02*
G03*
X1497Y1389I-8J0D01*
G01*
X1647Y1019D02*
G03*
X1647Y1019I-8J0D01*
G01*
X1227Y979D02*
G03*
X1227Y979I-8J0D01*
G01*
X1237Y1239D02*
G03*
X1237Y1239I-8J0D01*
G01*
X1767D02*
G03*
X1767Y1239I-8J0D01*
G01*
X308Y1719D02*
G03*
X308Y1719I-8J0D01*
G01*
X668D02*
G03*
X668Y1719I-8J0D01*
G01*
X478Y1389D02*
G03*
X478Y1389I-8J0D01*
G01*
X628Y1019D02*
G03*
X628Y1019I-8J0D01*
G01*
X208Y979D02*
G03*
X208Y979I-8J0D01*
G01*
X218Y1239D02*
G03*
X218Y1239I-8J0D01*
G01*
X748D02*
G03*
X748Y1239I-8J0D01*
G01*
M02*
