G04 Layer_Color=8388736*
%FSLAX23Y23*%
%MOIN*%
G70*
G01*
G75*
%ADD33R,0.108X0.053*%
%ADD34R,0.063X0.108*%
G04:AMPARAMS|DCode=35|XSize=53mil|YSize=108mil|CornerRadius=15mil|HoleSize=0mil|Usage=FLASHONLY|Rotation=90.000|XOffset=0mil|YOffset=0mil|HoleType=Round|Shape=RoundedRectangle|*
%AMROUNDEDRECTD35*
21,1,0.053,0.078,0,0,90.0*
21,1,0.023,0.108,0,0,90.0*
1,1,0.031,0.039,0.011*
1,1,0.031,0.039,-0.011*
1,1,0.031,-0.039,-0.011*
1,1,0.031,-0.039,0.011*
%
%ADD35ROUNDEDRECTD35*%
%ADD36R,0.126X0.079*%
G04:AMPARAMS|DCode=37|XSize=126mil|YSize=79mil|CornerRadius=22mil|HoleSize=0mil|Usage=FLASHONLY|Rotation=0.000|XOffset=0mil|YOffset=0mil|HoleType=Round|Shape=RoundedRectangle|*
%AMROUNDEDRECTD37*
21,1,0.126,0.035,0,0,0.0*
21,1,0.083,0.079,0,0,0.0*
1,1,0.043,0.041,-0.018*
1,1,0.043,-0.041,-0.018*
1,1,0.043,-0.041,0.018*
1,1,0.043,0.041,0.018*
%
%ADD37ROUNDEDRECTD37*%
%ADD38R,0.058X0.058*%
%ADD39R,0.047X0.075*%
%ADD40R,0.047X0.075*%
G04:AMPARAMS|DCode=41|XSize=75mil|YSize=47mil|CornerRadius=14mil|HoleSize=0mil|Usage=FLASHONLY|Rotation=270.000|XOffset=0mil|YOffset=0mil|HoleType=Round|Shape=RoundedRectangle|*
%AMROUNDEDRECTD41*
21,1,0.075,0.020,0,0,270.0*
21,1,0.047,0.047,0,0,270.0*
1,1,0.028,-0.010,-0.024*
1,1,0.028,-0.010,0.024*
1,1,0.028,0.010,0.024*
1,1,0.028,0.010,-0.024*
%
%ADD41ROUNDEDRECTD41*%
%ADD42C,0.067*%
%ADD43R,0.067X0.067*%
%ADD44R,0.067X0.067*%
D33*
X1800Y1757D02*
D03*
X1186Y1837D02*
D03*
Y1758D02*
D03*
Y1680D02*
D03*
Y1600D02*
D03*
Y1522D02*
D03*
Y1444D02*
D03*
Y1365D02*
D03*
X1801Y1364D02*
D03*
Y1443D02*
D03*
Y1521D02*
D03*
X1800Y1600D02*
D03*
Y1679D02*
D03*
Y1837D02*
D03*
Y1915D02*
D03*
X781Y1757D02*
D03*
X167Y1837D02*
D03*
Y1758D02*
D03*
Y1680D02*
D03*
Y1600D02*
D03*
Y1522D02*
D03*
Y1444D02*
D03*
Y1365D02*
D03*
X782Y1364D02*
D03*
Y1443D02*
D03*
Y1521D02*
D03*
X781Y1600D02*
D03*
Y1679D02*
D03*
Y1837D02*
D03*
Y1915D02*
D03*
D34*
X1296Y1283D02*
D03*
X1374D02*
D03*
X1452D02*
D03*
X1532D02*
D03*
X1610D02*
D03*
X1690D02*
D03*
X277D02*
D03*
X355D02*
D03*
X433D02*
D03*
X513D02*
D03*
X591D02*
D03*
X671D02*
D03*
D35*
X1186Y1915D02*
D03*
X167D02*
D03*
D36*
X1575Y1099D02*
D03*
X557D02*
D03*
D37*
X1402D02*
D03*
X383D02*
D03*
D38*
X1209Y1147D02*
D03*
Y910D02*
D03*
X1779D02*
D03*
Y1147D02*
D03*
X190D02*
D03*
Y910D02*
D03*
X760D02*
D03*
Y1147D02*
D03*
D39*
X87Y97D02*
D03*
Y297D02*
D03*
X324D02*
D03*
Y97D02*
D03*
X560D02*
D03*
Y297D02*
D03*
X796D02*
D03*
Y97D02*
D03*
X1032D02*
D03*
Y297D02*
D03*
X1269D02*
D03*
Y97D02*
D03*
X1505D02*
D03*
Y297D02*
D03*
X1741D02*
D03*
Y97D02*
D03*
X87Y530D02*
D03*
Y730D02*
D03*
X324D02*
D03*
Y530D02*
D03*
X560D02*
D03*
Y730D02*
D03*
X796D02*
D03*
Y530D02*
D03*
X1032D02*
D03*
Y730D02*
D03*
X1269D02*
D03*
Y530D02*
D03*
X1505D02*
D03*
Y730D02*
D03*
X1741D02*
D03*
Y530D02*
D03*
D40*
X217Y97D02*
D03*
X454D02*
D03*
X690D02*
D03*
X926D02*
D03*
X1162D02*
D03*
X1399D02*
D03*
X1635D02*
D03*
X1871D02*
D03*
X217Y530D02*
D03*
X454D02*
D03*
X690D02*
D03*
X926D02*
D03*
X1162D02*
D03*
X1399D02*
D03*
X1635D02*
D03*
X1871D02*
D03*
D41*
X217Y297D02*
D03*
X454D02*
D03*
X690D02*
D03*
X926D02*
D03*
X1162D02*
D03*
X1399D02*
D03*
X1635D02*
D03*
X1871D02*
D03*
X217Y730D02*
D03*
X454D02*
D03*
X690D02*
D03*
X926D02*
D03*
X1162D02*
D03*
X1399D02*
D03*
X1635D02*
D03*
X1871D02*
D03*
D42*
X1919Y1919D02*
D03*
Y1819D02*
D03*
Y1719D02*
D03*
Y1619D02*
D03*
Y1519D02*
D03*
Y1419D02*
D03*
Y1319D02*
D03*
Y1219D02*
D03*
Y1119D02*
D03*
Y1019D02*
D03*
Y919D02*
D03*
X1069Y1819D02*
D03*
Y1719D02*
D03*
Y1619D02*
D03*
Y1519D02*
D03*
Y1419D02*
D03*
Y1319D02*
D03*
Y1219D02*
D03*
Y1119D02*
D03*
Y1019D02*
D03*
Y919D02*
D03*
X1549D02*
D03*
X1449D02*
D03*
X1349D02*
D03*
X900Y1919D02*
D03*
Y1819D02*
D03*
Y1719D02*
D03*
Y1619D02*
D03*
Y1519D02*
D03*
Y1419D02*
D03*
Y1319D02*
D03*
Y1219D02*
D03*
Y1119D02*
D03*
Y1019D02*
D03*
Y919D02*
D03*
X50Y1819D02*
D03*
Y1719D02*
D03*
Y1619D02*
D03*
Y1519D02*
D03*
Y1419D02*
D03*
Y1319D02*
D03*
Y1219D02*
D03*
Y1119D02*
D03*
Y1019D02*
D03*
Y919D02*
D03*
X530D02*
D03*
X430D02*
D03*
X330D02*
D03*
D43*
X1069Y1919D02*
D03*
X50D02*
D03*
D44*
X1649Y919D02*
D03*
X630D02*
D03*
M02*
