G04 Layer_Color=128*
%FSLAX23Y23*%
%MOIN*%
G70*
G01*
G75*
%ADD50C,0.002*%
D50*
X1901Y1919D02*
X1936D01*
X1919Y1901D02*
Y1936D01*
X1901Y1819D02*
X1936D01*
X1919Y1801D02*
Y1836D01*
X1901Y1719D02*
X1936D01*
X1919Y1701D02*
Y1736D01*
X1901Y1619D02*
X1936D01*
X1919Y1601D02*
Y1636D01*
X1901Y1519D02*
X1936D01*
X1919Y1501D02*
Y1536D01*
X1901Y1419D02*
X1936D01*
X1919Y1401D02*
Y1436D01*
X1901Y1319D02*
X1936D01*
X1919Y1301D02*
Y1336D01*
X1901Y1219D02*
X1936D01*
X1919Y1201D02*
Y1236D01*
X1901Y1119D02*
X1936D01*
X1919Y1101D02*
Y1136D01*
X1901Y1019D02*
X1936D01*
X1919Y1001D02*
Y1036D01*
X1901Y919D02*
X1936D01*
X1919Y901D02*
Y936D01*
X1051Y1919D02*
X1086D01*
X1069Y1901D02*
Y1936D01*
X1051Y1819D02*
X1086D01*
X1069Y1801D02*
Y1836D01*
X1051Y1719D02*
X1086D01*
X1069Y1701D02*
Y1736D01*
X1051Y1619D02*
X1086D01*
X1069Y1601D02*
Y1636D01*
X1051Y1519D02*
X1086D01*
X1069Y1501D02*
Y1536D01*
X1051Y1419D02*
X1086D01*
X1069Y1401D02*
Y1436D01*
X1051Y1319D02*
X1086D01*
X1069Y1301D02*
Y1336D01*
X1051Y1219D02*
X1086D01*
X1069Y1201D02*
Y1236D01*
X1051Y1119D02*
X1086D01*
X1069Y1101D02*
Y1136D01*
X1051Y1019D02*
X1086D01*
X1069Y1001D02*
Y1036D01*
X1051Y919D02*
X1086D01*
X1069Y901D02*
Y936D01*
X1631Y919D02*
X1666D01*
X1649Y901D02*
Y936D01*
X1531Y919D02*
X1566D01*
X1549Y901D02*
Y936D01*
X1431Y919D02*
X1466D01*
X1449Y901D02*
Y936D01*
X1331Y919D02*
X1366D01*
X1349Y901D02*
Y936D01*
X1311Y1719D02*
X1326D01*
X1319Y1711D02*
Y1726D01*
X1671Y1719D02*
X1686D01*
X1679Y1711D02*
Y1726D01*
X1481Y1389D02*
X1496D01*
X1489Y1381D02*
Y1396D01*
X1631Y1019D02*
X1646D01*
X1639Y1011D02*
Y1026D01*
X1211Y979D02*
X1226D01*
X1219Y971D02*
Y986D01*
X1221Y1239D02*
X1236D01*
X1229Y1231D02*
Y1246D01*
X1751Y1239D02*
X1766D01*
X1759Y1231D02*
Y1246D01*
X882Y1919D02*
X918D01*
X900Y1901D02*
Y1936D01*
X882Y1819D02*
X918D01*
X900Y1801D02*
Y1836D01*
X882Y1719D02*
X918D01*
X900Y1701D02*
Y1736D01*
X882Y1619D02*
X918D01*
X900Y1601D02*
Y1636D01*
X882Y1519D02*
X918D01*
X900Y1501D02*
Y1536D01*
X882Y1419D02*
X918D01*
X900Y1401D02*
Y1436D01*
X882Y1319D02*
X918D01*
X900Y1301D02*
Y1336D01*
X882Y1219D02*
X918D01*
X900Y1201D02*
Y1236D01*
X882Y1119D02*
X918D01*
X900Y1101D02*
Y1136D01*
X882Y1019D02*
X918D01*
X900Y1001D02*
Y1036D01*
X882Y919D02*
X918D01*
X900Y901D02*
Y936D01*
X32Y1919D02*
X68D01*
X50Y1901D02*
Y1936D01*
X32Y1819D02*
X68D01*
X50Y1801D02*
Y1836D01*
X32Y1719D02*
X68D01*
X50Y1701D02*
Y1736D01*
X32Y1619D02*
X68D01*
X50Y1601D02*
Y1636D01*
X32Y1519D02*
X68D01*
X50Y1501D02*
Y1536D01*
X32Y1419D02*
X68D01*
X50Y1401D02*
Y1436D01*
X32Y1319D02*
X68D01*
X50Y1301D02*
Y1336D01*
X32Y1219D02*
X68D01*
X50Y1201D02*
Y1236D01*
X32Y1119D02*
X68D01*
X50Y1101D02*
Y1136D01*
X32Y1019D02*
X68D01*
X50Y1001D02*
Y1036D01*
X32Y919D02*
X68D01*
X50Y901D02*
Y936D01*
X612Y919D02*
X648D01*
X630Y901D02*
Y936D01*
X512Y919D02*
X548D01*
X530Y901D02*
Y936D01*
X412Y919D02*
X448D01*
X430Y901D02*
Y936D01*
X312Y919D02*
X348D01*
X330Y901D02*
Y936D01*
X292Y1719D02*
X308D01*
X300Y1711D02*
Y1726D01*
X652Y1719D02*
X668D01*
X660Y1711D02*
Y1726D01*
X462Y1389D02*
X478D01*
X470Y1381D02*
Y1396D01*
X612Y1019D02*
X628D01*
X620Y1011D02*
Y1026D01*
X192Y979D02*
X208D01*
X200Y971D02*
Y986D01*
X202Y1239D02*
X218D01*
X210Y1231D02*
Y1246D01*
X732Y1239D02*
X748D01*
X740Y1231D02*
Y1246D01*
X1803Y197D02*
X1819D01*
X1811Y189D02*
Y205D01*
X146Y197D02*
X161D01*
X154Y189D02*
Y205D01*
X622Y335D02*
X638D01*
X630Y327D02*
Y343D01*
X858Y335D02*
X874D01*
X866Y327D02*
Y343D01*
X1094Y335D02*
X1110D01*
X1102Y327D02*
Y343D01*
X1331Y335D02*
X1346D01*
X1339Y327D02*
Y343D01*
X1567Y335D02*
X1583D01*
X1575Y327D02*
Y343D01*
X1797Y346D02*
X1813D01*
X1805Y339D02*
Y354D01*
X1799Y47D02*
X1815D01*
X1807Y39D02*
Y55D01*
X1562Y54D02*
X1578D01*
X1570Y46D02*
Y62D01*
X1326Y54D02*
X1341D01*
X1334Y46D02*
Y62D01*
X1089Y54D02*
X1105D01*
X1097Y46D02*
Y62D01*
X853Y54D02*
X869D01*
X861Y46D02*
Y62D01*
X617Y54D02*
X633D01*
X625Y46D02*
Y62D01*
X381Y54D02*
X397D01*
X389Y46D02*
Y62D01*
X149Y48D02*
X164D01*
X156Y40D02*
Y56D01*
X386Y335D02*
X402D01*
X394Y327D02*
Y343D01*
X156Y345D02*
X171D01*
X163Y338D02*
Y353D01*
X1803Y630D02*
X1819D01*
X1811Y622D02*
Y638D01*
X146Y630D02*
X161D01*
X154Y622D02*
Y638D01*
X622Y768D02*
X638D01*
X630Y760D02*
Y776D01*
X858Y768D02*
X874D01*
X866Y760D02*
Y776D01*
X1094Y768D02*
X1110D01*
X1102Y760D02*
Y776D01*
X1331Y768D02*
X1346D01*
X1339Y760D02*
Y776D01*
X1567Y768D02*
X1583D01*
X1575Y760D02*
Y776D01*
X1797Y780D02*
X1813D01*
X1805Y772D02*
Y787D01*
X1799Y480D02*
X1815D01*
X1807Y472D02*
Y488D01*
X1562Y487D02*
X1578D01*
X1570Y479D02*
Y495D01*
X1326Y487D02*
X1341D01*
X1334Y479D02*
Y495D01*
X1089Y487D02*
X1105D01*
X1097Y479D02*
Y495D01*
X853Y487D02*
X869D01*
X861Y479D02*
Y495D01*
X617Y487D02*
X633D01*
X625Y479D02*
Y495D01*
X381Y487D02*
X397D01*
X389Y479D02*
Y495D01*
X149Y481D02*
X164D01*
X156Y474D02*
Y489D01*
X386Y768D02*
X402D01*
X394Y760D02*
Y776D01*
X156Y779D02*
X171D01*
X163Y771D02*
Y786D01*
M02*
