M48
;Layer_Color=9474304
;FILE_FORMAT=2:3
INCH,LZ
;TYPE=PLATED
T1F00S00C0.016
T2F00S00C0.028
T3F00S00C0.035
%
T01
X0062Y01019
X0074Y01239
X01229
X01219Y00979
X01639Y01019
X01759Y01239
X01489Y01389
X01319Y01719
X01679
X0066
X003
X0047Y01389
X0021Y01239
X002Y00979
T02
X00157Y00059
X00154Y00197
X00157Y00335
Y00492
X00394
Y00335
Y00059
X0063
X00866
X01102
X01339
X01575
X01811
Y00197
Y00335
Y00492
X01575
Y00335
X01339
Y00492
X01102
Y00335
X00866
Y00492
X0063
Y00335
Y00768
X00866
X01102
X01339
X01575
X01811
Y0063
X00394Y00768
X00157
X00154Y0063
T03
X0063Y00919
X009
Y01019
Y01119
Y01219
Y01319
Y01419
Y01519
Y01619
Y01719
Y01819
Y01919
X01069
Y01819
Y01719
Y01619
Y01519
Y01419
Y01319
Y01219
Y01119
Y01019
Y00919
X01349
X01449
X01549
X01649
X01919
Y01019
Y01119
Y01219
Y01319
Y01419
Y01519
Y01619
Y01719
Y01819
Y01919
X0005
Y01819
Y01719
Y01619
Y01519
Y01419
Y01319
Y01219
Y01119
Y01019
Y00919
X0033
X0043
X0053
M30
